<svg width="1024" height="1024" viewBox="0 0 1024 1024" xmlns="http://www.w3.org/2000/svg" data-variant="color-modern">
  <defs>
    <linearGradient id="screenshot-color-modern-bg" x1="0" y1="0" x2="0" y2="1">
      <stop offset="0" stop-color="#24242d"/>
      <stop offset="1" stop-color="#08080d"/>
    </linearGradient>
    <linearGradient id="screenshot-color-modern-rim" x1="0" y1="0" x2="0" y2="1">
      <stop offset="0" stop-color="#ffffff" stop-opacity="0.18"/>
      <stop offset="0.55" stop-color="#ffffff" stop-opacity="0.03"/>
      <stop offset="1" stop-color="#ffffff" stop-opacity="0"/>
    </linearGradient>
    <radialGradient id="screenshot-color-modern-accent" cx="0.45" cy="0.35" r="0.42">
      <stop offset="0" stop-color="#ee9a5d" stop-opacity="0.16"/>
      <stop offset="1" stop-color="#c97b4a" stop-opacity="0"/>
    </radialGradient>
    <linearGradient id="screenshot-color-modern-corners" x1="0.16" y1="0.12" x2="0.84" y2="0.88">
      <stop offset="0" stop-color="#8ed8ff"/>
      <stop offset="0.5" stop-color="#f7f5f2"/>
      <stop offset="1" stop-color="#e59661"/>
    </linearGradient>
    <linearGradient id="screenshot-color-modern-aperture" x1="0.2" y1="0.18" x2="0.82" y2="0.86">
      <stop offset="0" stop-color="#f7f5f2"/>
      <stop offset="0.52" stop-color="#e59661"/>
      <stop offset="1" stop-color="#8ed8ff"/>
    </linearGradient>
    <filter id="screenshot-color-modern-depth" x="-28%" y="-24%" width="156%" height="164%">
      <feDropShadow dx="0" dy="26" stdDeviation="10" flood-color="#000000" flood-opacity="0.62"/>
      <feDropShadow dx="0" dy="8" stdDeviation="4" flood-color="#c97b4a" flood-opacity="0.2"/>
      <feDropShadow dx="0" dy="-4" stdDeviation="2" flood-color="#ffffff" flood-opacity="0.18"/>
    </filter>
  </defs>
  <rect x="100" y="100" width="824" height="824" rx="185" fill="url(#screenshot-color-modern-bg)"/>
  <rect x="100" y="100" width="824" height="412" rx="185" fill="url(#screenshot-color-modern-rim)"/>
  <circle cx="452" cy="364" r="226" fill="url(#screenshot-color-modern-accent)" data-layer="accent-glint"/>
  <rect x="101.5" y="101.5" width="821" height="821" rx="183.5" fill="none" stroke="#ffffff" stroke-opacity="0.12" stroke-width="3"/>
  <g id="screenshot-color-modern-mark" fill="none" stroke-width="40" stroke-linecap="round" stroke-linejoin="round" filter="url(#screenshot-color-modern-depth)">
    <path data-role="capture-corners" d="M 360 314 H 248 V 426 M 664 314 H 776 V 426 M 360 710 H 248 V 598 M 664 710 H 776 V 598" stroke="url(#screenshot-color-modern-corners)" stroke-opacity="0.9"/>
    <path data-role="capture-aperture" d="M 512 374 L 646 451 V 573 L 512 650 L 378 573 V 451 Z M 512 454 L 570 488 V 536 L 512 570 L 454 536 V 488 Z" stroke="url(#screenshot-color-modern-aperture)" stroke-opacity="0.94"/>
  </g>
</svg>
